<svg width="24" height="22" viewBox="0 0 24 22" fill="none" xmlns="http://www.w3.org/2000/svg">
<path id="linkedin" d="M21.8182 0H2.18182C0.976364 0 0 0.895 0 2V20C0 21.105 0.976364 22 2.18182 22H21.8182C23.0236 22 24 21.105 24 20V2C24 0.895 23.0236 0 21.8182 0ZM7.58618 18H4.368V8.508H7.58618V18ZM5.94436 7.151C4.90691 7.151 4.068 6.38 4.068 5.431C4.068 4.482 4.908 3.712 5.94436 3.712C6.97855 3.712 7.81964 4.483 7.81964 5.431C7.81964 6.38 6.97855 7.151 5.94436 7.151ZM19.6407 18H16.4247V13.384C16.4247 12.283 16.4029 10.867 14.7524 10.867C13.0778 10.867 12.8204 12.066 12.8204 13.304V18H9.60436V8.508H12.6916V9.805H12.7353C13.1651 9.059 14.2145 8.272 15.78 8.272C19.0385 8.272 19.6407 10.238 19.6407 12.794V18Z" fill="#1F1E21"/>
</svg>
