<svg xmlns="http://www.w3.org/2000/svg" viewBox="0 0 218 195" fill="none">
<path d="M152.841 40.6709C161.815 40.6709 169.089 33.3965 169.089 24.423C169.089 15.4495 161.815 8.17505 152.841 8.17505C143.868 8.17505 136.593 15.4495 136.593 24.423C136.593 33.3965 143.868 40.6709 152.841 40.6709Z" fill="white"/>
<path d="M152.841 16.3501C154.438 16.3501 155.999 16.8236 157.326 17.7107C158.654 18.5977 159.689 19.8585 160.3 21.3336C160.911 22.8088 161.071 24.432 160.759 25.9979C160.448 27.5639 159.679 29.0024 158.55 30.1314C157.421 31.2604 155.982 32.0293 154.416 32.3408C152.85 32.6522 151.227 32.4924 149.752 31.8814C148.277 31.2704 147.016 30.2356 146.129 28.908C145.242 27.5805 144.768 26.0197 144.768 24.423C144.771 22.2828 145.623 20.231 147.136 18.7176C148.649 17.2042 150.701 16.3528 152.841 16.3501ZM152.841 0C148.011 0 143.289 1.43238 139.273 4.11602C135.256 6.79965 132.126 10.614 130.277 15.0767C128.429 19.5394 127.945 24.4501 128.888 29.1877C129.83 33.9253 132.156 38.2771 135.572 41.6927C138.987 45.1083 143.339 47.4344 148.077 48.3767C152.814 49.3191 157.725 48.8354 162.188 46.9869C166.65 45.1384 170.465 42.008 173.148 37.9917C175.832 33.9754 177.264 29.2534 177.264 24.423C177.264 17.9456 174.691 11.7335 170.111 7.15333C165.531 2.57313 159.319 0 152.841 0Z" fill="white"/>
<path d="M98.3709 158.29L118.594 143.354C119.07 143.01 166.236 108.969 182.429 98.677L182.552 98.5973C185.791 96.5393 191.818 92.7093 196.1 85.4948C197.986 82.3187 203.841 70.935 199.983 57.8794C196.803 47.119 188.728 40.8078 182.515 37.409L182.433 37.3661L182.47 37.2803C184.233 33.2236 185.137 28.8461 185.127 24.423C185.126 23.0667 185.042 21.7118 184.873 20.3661L184.851 20.1903L185.014 20.2598C194.029 24.0939 210.022 33.4686 215.851 53.1869C218.409 61.8443 218.508 70.8594 216.114 79.9786C214.84 84.8788 212.893 89.579 210.33 93.9457C204.03 104.561 195.517 109.971 191.426 112.569L191.303 112.646C179.609 120.081 165.729 129.597 148.881 141.735H208.426V158.29H98.3709Z" fill="white"/>
<path d="M184.982 20.3518C193.492 23.9713 209.877 33.3154 215.759 53.2135C218.313 61.8525 218.401 70.8492 216.02 79.9501C214.751 84.8418 212.809 89.5334 210.249 93.8906C203.96 104.483 195.462 109.885 191.377 112.489L191.256 112.567C179.517 120.03 165.67 129.53 148.57 141.843H208.33V158.194H98.6815L118.655 143.442C118.655 143.442 166.107 109.18 182.484 98.7691L182.607 98.6894C185.852 96.6211 191.904 92.7829 196.196 85.548C198.086 82.3617 203.962 70.9473 200.079 57.8508C196.864 46.9739 188.646 40.6485 182.562 37.3212C184.33 33.2514 185.24 28.8605 185.235 24.423C185.235 23.0627 185.15 21.7037 184.982 20.3539M184.734 20.0269L184.777 20.3784C184.945 21.72 185.03 23.0708 185.031 24.423C185.039 28.8328 184.135 33.1965 182.374 37.2395L182.3 37.4111L182.464 37.499C188.66 40.8896 196.713 47.1803 199.883 57.9081C203.731 70.9248 197.894 82.2738 196.014 85.4437C191.742 92.6357 185.73 96.4576 182.498 98.5116L182.374 98.5913C166.179 108.886 119.017 142.927 118.535 143.27L98.561 158.022L98.0623 158.392H208.534V141.633H149.203C165.936 129.575 179.731 120.128 191.364 112.734L191.487 112.656C195.574 110.053 204.111 104.633 210.424 93.9969C212.995 89.6233 214.947 84.9146 216.225 80.0053C218.614 70.8676 218.526 61.8341 215.961 53.1563C213.378 44.4172 208.511 36.8062 201.499 30.5277C195.56 25.2139 189.286 21.9603 185.067 20.1658L184.74 20.0269H184.734Z" fill="white"/>
<path d="M13.2113 132.636C9.09921 124.339 7.37836 115.918 8.10185 107.608C8.83352 99.1042 12.1117 91.2582 18.1163 83.5982C22.9253 77.4791 28.8277 72.1858 36.0442 65.9012C42.5843 60.197 52.0163 52.8947 72.2189 41.9728C87.8367 33.5499 103.991 26.1615 120.576 19.8551L120.67 19.8184L120.828 20.2271V20.2516C120.651 21.6344 120.563 23.0269 120.562 24.4209C120.555 28.5899 121.361 32.7202 122.933 36.5813L122.972 36.6774L122.876 36.7142C108.232 42.4508 93.9508 49.0712 80.1099 56.5387C61.3072 66.688 52.7786 73.2853 46.913 78.3947C33.6694 89.9257 25.5597 97.7431 24.5869 109.037C24.1352 114.283 25.2981 119.754 28.0429 125.293L28.0899 125.385L13.2562 132.743L13.2113 132.636Z" fill="white"/>
<path d="M120.605 19.943L120.715 20.2353C119.998 25.7881 120.725 31.432 122.825 36.6222C108.177 42.3576 93.8924 48.978 80.0485 56.4467C61.2459 66.6042 52.7152 73.2056 46.8455 78.315C33.5835 89.8643 25.4616 97.694 24.4847 109.027C24.033 114.291 25.198 119.779 27.9591 125.338L13.3073 132.597C9.20549 124.318 7.48873 115.916 8.19791 107.623C8.92754 99.139 12.1996 91.3032 18.1981 83.6676C23.0009 77.5547 28.8992 72.2655 36.1096 65.985C42.6497 60.2849 52.0735 52.9846 72.2843 42.0729C87.8904 33.6485 104.032 26.256 120.605 19.943ZM120.722 19.6794L120.531 19.753C103.947 26.0642 87.7949 33.456 72.178 41.8808C51.9447 52.8088 42.5291 60.1173 35.9747 65.8256C28.7541 72.1122 22.8497 77.4076 18.0346 83.5348C12.0116 91.203 8.7252 99.0674 7.99149 107.6C7.27413 115.931 8.99907 124.359 13.1193 132.681L13.2092 132.865L13.3932 132.773L28.0429 125.514L28.2268 125.424L28.1348 125.24C25.3982 119.722 24.2394 114.265 24.6891 109.037C25.6578 97.7819 33.7573 89.9788 46.9804 78.4642C52.8399 73.3548 61.3644 66.7739 80.1446 56.6266C93.9822 49.1594 108.26 42.539 122.9 36.802L123.092 36.7264L123.015 36.5343C121.448 32.6853 120.646 28.5683 120.652 24.4127C120.652 23.0235 120.74 21.6356 120.918 20.2578V20.2067L120.899 20.1576L120.789 19.8674L120.715 19.6753L120.722 19.6794Z" fill="white"/>
<path d="M15.3838 194.979C11.5295 194.989 7.81289 193.547 4.97261 190.942C2.13233 188.337 0.37641 184.758 0.0538634 180.917C-0.268684 177.076 0.865767 173.255 3.23172 170.212C5.59767 167.169 9.02187 165.129 12.8237 164.495C16.6255 163.861 20.5266 164.681 23.7514 166.792C26.9763 168.903 29.2888 172.15 30.2294 175.888C31.1699 179.625 30.6696 183.58 28.8278 186.966C26.9861 190.352 23.9378 192.921 20.2888 194.162C18.7095 194.701 17.0525 194.977 15.3838 194.979ZM15.4022 174.542C14.8462 174.543 14.294 174.634 13.7672 174.811C12.5593 175.222 11.55 176.071 10.9395 177.191C10.3291 178.311 10.1623 179.62 10.4722 180.857C10.7821 182.094 11.5461 183.17 12.6124 183.87C13.6788 184.57 14.9694 184.843 16.2279 184.635C17.4864 184.428 18.6208 183.754 19.4057 182.749C20.1906 181.743 20.5686 180.479 20.4646 179.208C20.3606 177.937 19.7823 176.751 18.8444 175.887C17.9065 175.022 16.6777 174.542 15.4022 174.542Z" fill="white"/>
<path d="M70.3754 177.603C67.3437 177.603 64.3802 176.704 61.8595 175.02C59.3387 173.336 57.3741 170.942 56.2139 168.141C55.0538 165.34 54.7502 162.258 55.3417 159.285C55.9331 156.311 57.393 153.58 59.5367 151.436C61.6804 149.293 64.4116 147.833 67.385 147.241C70.3584 146.65 73.4404 146.953 76.2412 148.114C79.0421 149.274 81.4361 151.238 83.1203 153.759C84.8046 156.28 85.7036 159.243 85.7036 162.275C85.6987 166.339 84.0823 170.235 81.2087 173.108C78.3352 175.982 74.4392 177.598 70.3754 177.603ZM70.3754 157.166C69.3648 157.166 68.377 157.465 67.5367 158.027C66.6965 158.588 66.0416 159.386 65.6549 160.32C65.2682 161.253 65.167 162.281 65.3641 163.272C65.5613 164.263 66.0479 165.173 66.7625 165.888C67.477 166.602 68.3874 167.089 69.3786 167.286C70.3697 167.483 71.397 167.382 72.3307 166.996C73.2643 166.609 74.0623 165.954 74.6237 165.114C75.1851 164.273 75.4848 163.286 75.4848 162.275C75.4848 160.92 74.9465 159.62 73.9883 158.662C73.0301 157.704 71.7305 157.166 70.3754 157.166Z" fill="white"/>
<path d="M76.9154 121.808C73.8838 121.808 70.9202 120.909 68.3995 119.225C65.8788 117.541 63.9141 115.147 62.754 112.346C61.5938 109.545 61.2903 106.463 61.8817 103.49C62.4732 100.516 63.933 97.7851 66.0767 95.6414C68.2204 93.4977 70.9517 92.0378 73.925 91.4464C76.8984 90.8549 79.9804 91.1585 82.7813 92.3187C85.5822 93.4788 87.9761 95.4435 89.6604 97.9642C91.3447 100.485 92.2437 103.448 92.2437 106.48C92.2388 110.544 90.6223 114.44 87.7488 117.313C84.8752 120.187 80.9792 121.803 76.9154 121.808ZM76.9154 101.371C75.9049 101.371 74.917 101.67 74.0768 102.232C73.2366 102.793 72.5817 103.591 72.195 104.525C71.8082 105.458 71.707 106.486 71.9042 107.477C72.1013 108.468 72.588 109.378 73.3025 110.093C74.0171 110.808 74.9275 111.294 75.9186 111.491C76.9098 111.688 77.9371 111.587 78.8707 111.201C79.8043 110.814 80.6023 110.159 81.1638 109.319C81.7252 108.479 82.0249 107.491 82.0249 106.48C82.0249 105.125 81.4865 103.825 80.5283 102.867C79.5701 101.909 78.2705 101.371 76.9154 101.371Z" fill="white"/>
<path d="M8.80081 160.074C13.6815 158.414 19.0081 158.654 23.7203 160.744L23.3626 136.605L7.01251 136.848L7.36404 160.622C7.83819 160.423 8.31439 160.237 8.80081 160.074Z" fill="white"/>
<path d="M50.1217 158.731C50.6007 156.016 51.6199 153.424 53.119 151.11C54.618 148.796 56.5664 146.806 58.8486 145.259L34.9426 129.248L25.8458 142.835L49.9623 158.981L50.1217 158.731Z" fill="white"/>
<path d="M55.8095 106.48C55.8089 105.177 55.9293 103.877 56.1692 102.597L30.2277 110.159L34.8016 125.857L59.6497 118.616C57.1447 115.066 55.8029 110.825 55.8095 106.48Z" fill="white"/>
</svg>

